<svg width="51" height="50" viewBox="0 0 51 50" fill="none" xmlns="http://www.w3.org/2000/svg">
<rect x="1" y="1" width="49" height="48" fill="#99A860" stroke="#99A860"/>
<path stroke-width="3px" d="M26.55 36.92V41.81" stroke="#212121" stroke-miterlimit="10" stroke-linecap="round" stroke-linejoin="round"/>
<path stroke-width="3px" d="M22.51 41.81V37.05" stroke="#212121" stroke-miterlimit="10" stroke-linecap="round" stroke-linejoin="round"/>
<path stroke-width="3px" d="M15.3899 21.18C17.6499 20.54 20.1599 21.35 21.6899 23.42" stroke="#212121" stroke-miterlimit="10" stroke-linecap="round" stroke-linejoin="round"/>
<path stroke-width="3px" d="M24.25 36.8C26.98 36.8 29.7 36.8 31.34 36.8C35.5 36.8 38.86 33.25 38.86 28.87C38.86 25.13 36.41 22.01 33.11 21.17C33.21 20.59 33.27 19.99 33.27 19.38C33.27 14.2 29.42 9.98 24.57 9.72H24C19.15 9.98 15.3 14.21 15.3 19.38C15.3 19.99 15.36 20.59 15.46 21.17C12.16 22.01 9.70996 25.14 9.70996 28.87C9.70996 33.25 13.08 36.8 17.23 36.8C18.87 36.8 21.6 36.8 24.32 36.8" stroke="#212121" stroke-miterlimit="10" stroke-linecap="round" stroke-linejoin="round"/>
<path stroke-width="3px" d="M33.1899 21.18C30.9299 20.54 28.4199 21.35 26.8899 23.42" stroke="#212121" stroke-miterlimit="10" stroke-linecap="round" stroke-linejoin="round"/>
</svg>
