<svg width="51" height="50" viewBox="0 0 51 50" fill="none" xmlns="http://www.w3.org/2000/svg">
<rect x="1" y="1" width="49" height="48" fill="#D27B51" stroke="#212121"/>
<path d="M19.2783 40.47H37.8754C39.6621 40.47 40.9109 38.7121 40.3153 37.0311L31.4298 11.7291C30.6229 9.42364 27.3569 9.42364 26.55 11.7291L19.3648 32.1993" stroke="#212121" stroke-miterlimit="10" stroke-linecap="round" stroke-linejoin="round"/>
<path d="M19.307 32.4875L17.6644 29.769C16.6558 28.1072 14.2447 28.1072 13.2457 29.769L9.13434 36.5412C8.08729 38.2606 9.32645 40.47 11.3437 40.47H19.5568C21.574 40.47 22.8132 38.2702 21.7661 36.5412L19.307 32.4875Z" stroke="#212121" stroke-miterlimit="10" stroke-linecap="round" stroke-linejoin="round"/>
<path d="M23.4758 20.4801L28.1059 25.1101" stroke="#212121" stroke-miterlimit="10" stroke-linecap="round" stroke-linejoin="round"/>
<path d="M37.6062 29.3175L32.4382 34.4951" stroke="#212121" stroke-miterlimit="10" stroke-linecap="round" stroke-linejoin="round"/>
<path d="M11.5068 33.8419L14.6288 36.9638" stroke="#212121" stroke-miterlimit="10" stroke-linecap="round" stroke-linejoin="round"/>
</svg>
