<svg width="51" height="50" viewBox="0 0 51 50" fill="none" xmlns="http://www.w3.org/2000/svg">
<rect x="1" y="1" width="49" height="48" fill="#DAB28D" stroke="#DAB28D"/>
<path stroke-width="3px" d="M35.8101 13.64C34.7101 13.64 33.8101 14.54 33.8101 15.64V21.71H29.8101V25.71H35.8101C36.9101 25.71 37.8101 24.81 37.8101 23.71V21.71V15.64C37.8101 14.53 36.9201 13.64 35.8101 13.64Z" stroke="#212121" stroke-miterlimit="10" stroke-linecap="round" stroke-linejoin="round"/>
<path stroke-width="3px" d="M17.75 19.55C17.75 18.45 16.85 17.55 15.75 17.55C14.65 17.55 13.75 18.45 13.75 19.55V25.62V27.62C13.75 28.72 14.65 29.62 15.75 29.62H21.82V25.62H17.75V19.55Z" stroke="#212121" stroke-miterlimit="10" stroke-linecap="round" stroke-linejoin="round"/>
<path stroke-width="3px" d="M29.8001 41.7V13.74C29.8001 11.54 28.0101 9.75 25.8101 9.75C23.6101 9.75 21.8201 11.54 21.8201 13.74V41.7" stroke="#212121" stroke-miterlimit="10" stroke-linecap="round" stroke-linejoin="round"/>
</svg>
