<?xml version="1.0" encoding="utf-8"?>
<!-- Generator: Adobe Illustrator 24.3.0, SVG Export Plug-In . SVG Version: 6.00 Build 0)  -->
<svg version="1.1" xmlns="http://www.w3.org/2000/svg" xmlns:xlink="http://www.w3.org/1999/xlink" x="0px" y="0px"
	 viewBox="0 0 379.22 89.58" style="enable-background:new 0 0 379.22 89.58;" xml:space="preserve">
<style type="text/css">
	.st0{fill:#FFFFFF;}
</style>
<g id="Layer_1">
</g>
<g id="Capa_1">
	<g>
		<g>
			<rect width="69.7" height="89.58"/>
		</g>
		<g>
			<rect x="75.07" width="69.69" height="89.58"/>
		</g>
		<g>
			<rect x="150.14" width="69.69" height="89.58"/>
		</g>
		<g>
			<rect x="225.21" width="69.69" height="89.58"/>
		</g>
		<g>
			<rect x="300.27" width="78.94" height="89.58"/>
		</g>
		<g>
			<path class="st0" d="M87.32,37.95c0.16-2.86,0.7-5.57,1.66-8.1c0.94-2.54,2.34-4.74,4.18-6.61c1.85-1.87,4.16-3.36,6.92-4.46
				c2.76-1.1,6.04-1.66,9.84-1.66c3.74,0,6.99,0.54,9.76,1.62c2.76,1.07,5.07,2.56,6.92,4.45c1.84,1.9,3.25,4.11,4.22,6.62
				c0.97,2.51,1.54,5.22,1.69,8.14c0.05,0.98,0.09,2.05,0.12,3.23c0.03,1.18,0.04,2.4,0.04,3.65c0,1.25-0.01,2.47-0.04,3.65
				c-0.03,1.18-0.07,2.26-0.12,3.23c-0.15,2.87-0.7,5.57-1.65,8.11c-0.95,2.54-2.35,4.74-4.19,6.61c-1.84,1.87-4.16,3.34-6.96,4.42
				c-2.79,1.07-6.06,1.61-9.79,1.61c-3.8,0-7.08-0.54-9.84-1.61c-2.77-1.08-5.07-2.55-6.92-4.42c-1.84-1.87-3.24-4.07-4.18-6.61
				c-0.95-2.54-1.5-5.24-1.66-8.11c-0.05-0.97-0.09-2.05-0.12-3.23c-0.03-1.18-0.04-2.4-0.04-3.65c0-1.25,0.01-2.47,0.04-3.65
				C87.23,40,87.27,38.92,87.32,37.95z M122.14,38.33c-0.2-3.68-1.4-6.55-3.57-8.57c-2.18-2.01-5.06-3.04-8.64-3.04
				c-3.59,0-6.47,1.02-8.65,3.04c-2.18,2.03-3.37,4.89-3.58,8.57c-0.1,1.95-0.15,4.11-0.15,6.5c0,2.38,0.05,4.55,0.15,6.49
				c0.21,3.69,1.4,6.53,3.58,8.54c2.18,1.99,5.06,3,8.65,3c3.58,0,6.46-1,8.64-3c2.18-2,3.37-4.85,3.57-8.54
				c0.1-1.94,0.15-4.11,0.15-6.49C122.29,42.44,122.24,40.28,122.14,38.33z"/>
		</g>
		<path class="st0" d="M201.43,21.63c-3.53-3-8.48-4.51-14.85-4.51h-22.11c-0.67,0-1.22,0.54-1.22,1.21v52.92
			c0,0.67,0.54,1.21,1.22,1.21h8.23c0.67,0,1.21-0.54,1.21-1.21l0.01-18.56h12.65c6.38,0,11.33-1.53,14.85-4.58
			c3.53-3.06,5.29-7.49,5.29-13.27C206.72,29.03,204.96,24.63,201.43,21.63z M193.37,41.03c-1.79,1.19-4.19,1.77-7.19,1.77h-12.25
			V27h12.25c3,0,5.4,0.57,7.19,1.7c1.79,1.13,2.69,3.17,2.69,6.13C196.05,37.78,195.16,39.84,193.37,41.03z"/>
		<path class="st0" d="M367.02,71.25L347.1,19.81c-0.31-0.89-0.68-1.56-1.1-2.01c-0.42-0.45-1.05-0.67-1.89-0.67h-8.69
			c-0.85,0-1.48,0.22-1.9,0.67c-0.42,0.45-0.79,1.12-1.1,2.01l-19.95,51.44c-0.27,0.67,0.07,1.21,0.73,1.21h8.66
			c0.67,0,1.43-0.54,1.69-1.21l3.73-9.54h24.97l3.71,9.54c0.26,0.67,1.01,1.21,1.69,1.21h8.65
			C366.96,72.46,367.29,71.92,367.02,71.25z M331.07,51.82l8.7-22.53l8.68,22.53H331.07z"/>
		<path class="st0" d="M52.65,17.12h-35.6c-0.67,0-1.21,0.54-1.21,1.21v52.92c0,0.67,0.55,1.21,1.21,1.21h8.26
			c0.67,0,1.22-0.54,1.22-1.21l-0.01-19.06h24.54c0.67,0,1.21-0.55,1.21-1.21v-7.46c0-0.67-0.55-1.21-1.21-1.21H26.51V27h26.14
			c0.67,0,1.21-0.54,1.21-1.21v-7.46C53.86,17.66,53.32,17.12,52.65,17.12z"/>
		<path class="st0" d="M278.33,17.12h-1.55h-2.61h-28.22h-3.24h-0.93c-0.67,0-1.21,0.54-1.21,1.21v0.93v3.24v44.59v3.23v0.93
			c0,0.67,0.55,1.21,1.21,1.21h0.93h3.24h28.22h3.24h0.92c0.67,0,1.21-0.54,1.21-1.21v-0.93v-2.37v-0.87V64.7v-0.91
			c0-0.67-0.54-1.21-1.21-1.21h-0.88c-0.01,0-0.03-0.01-0.04-0.01h-26.16V49.46h27.08c0.67,0,1.21-0.54,1.21-1.21v-7.46
			c0-0.67-0.54-1.21-1.21-1.21h-27.08V27h22.92h2.61h1.55c0.67,0,1.21-0.55,1.21-1.21v-3.3v-0.88v-3.29
			C279.54,17.66,279,17.12,278.33,17.12z"/>
	</g>
</g>
</svg>
