<svg width="320" height="33" viewBox="0 0 320 33" fill="none" xmlns="http://www.w3.org/2000/svg">
<g clip-path="url(#clip0)">
<path d="M118.024 25.173V2.47607H121.767L133.283 20.0834H133.427L133.283 15.6816V2.47607H136.306V25.173H133.139L121.047 6.60279H120.903L121.047 11.0046V25.0355H118.024V25.173Z" fill="#5C6266"/>
<path d="M147.823 25.586C145.519 25.7236 143.36 24.7607 141.777 23.2476C140.193 21.5969 139.33 19.5335 139.474 17.3326C139.474 15.1317 140.193 13.0683 141.633 11.4176C143.072 9.76694 145.232 8.9416 147.391 8.9416C149.55 8.80404 151.709 9.62938 153.149 11.1425C154.732 12.7932 155.452 14.9941 155.308 17.195V17.8828H142.64C142.64 19.2584 143.216 20.634 144.224 21.5969C145.232 22.4222 146.383 22.9724 147.679 22.9724C149.55 23.11 151.421 22.0095 152.141 20.3589L154.876 21.4593C154.3 22.6973 153.437 23.7978 152.285 24.4856C150.99 25.3109 149.406 25.7236 147.823 25.586ZM152.141 15.5443C151.997 14.5814 151.565 13.7561 150.846 13.0683C149.838 12.243 148.686 11.8303 147.391 11.8303C146.383 11.8303 145.375 12.243 144.512 12.7932C143.648 13.481 143.072 14.4439 142.784 15.5443H152.141Z" fill="#5C6266"/>
<path d="M175.317 25.1729H172.15L168.12 13.343L164.089 25.1729H161.066L155.884 9.62891H159.051L162.649 21.3213L166.68 9.62891H169.847L173.877 21.3213L177.476 9.62891H180.643L175.317 25.1729Z" fill="#5C6266"/>
<path d="M188.271 25.5856C186.688 25.5856 185.104 25.1729 183.809 24.3475C182.657 23.5222 181.794 22.4217 181.218 21.1837L183.953 20.0833C184.529 21.8715 186.4 23.1095 188.415 22.972C189.279 22.972 189.999 22.8344 190.718 22.4217C191.294 22.1466 191.582 21.4588 191.582 20.7711C191.582 19.8081 190.862 19.1204 189.423 18.7077L186.112 17.8823C185.104 17.6072 184.097 17.1946 183.233 16.5068C182.225 15.819 181.794 14.7185 181.794 13.6181C181.794 12.2425 182.513 11.0045 183.665 10.3167C186.112 8.80356 189.423 8.666 192.014 9.90402C193.166 10.4542 194.029 11.4172 194.461 12.6552L191.87 13.7556C191.294 12.3801 189.711 11.5547 188.127 11.6923C187.264 11.6923 186.544 11.8298 185.824 12.2425C185.248 12.5176 184.96 13.0678 184.96 13.7556C184.96 14.581 185.68 15.2688 187.12 15.5439L190.287 16.2317C191.582 16.5068 192.734 17.057 193.741 18.0199C194.461 18.8452 194.893 19.8081 194.893 20.7711C194.893 22.1466 194.173 23.3846 193.166 24.21C191.582 25.1729 189.855 25.7231 188.271 25.5856Z" fill="#5C6266"/>
<path d="M205.114 25.173V2.47607H208.137V25.173H205.114Z" fill="#5C6266"/>
<path d="M215.191 9.62911V11.83H215.334C215.766 11.0047 216.63 10.3169 217.35 9.90422C218.213 9.354 219.365 9.07888 220.373 9.07888C222.1 8.94132 223.828 9.62911 224.979 10.8671C226.131 12.2427 226.707 13.8934 226.563 15.5441V25.0355H223.54V15.9567C223.54 13.068 222.244 11.6925 219.509 11.6925C218.357 11.6925 217.206 12.2427 216.486 13.068C215.622 14.0309 215.334 15.1314 215.334 16.3694V24.898H212.312V9.62911H215.191Z" fill="#5C6266"/>
<path d="M233.184 5.77724C232.32 6.60259 231.024 6.60259 230.161 5.77724C229.729 5.36457 229.585 4.81434 229.585 4.40167C229.585 3.85144 229.729 3.30121 230.161 2.88854C231.024 2.0632 232.32 2.0632 233.184 2.88854C233.616 3.30121 233.759 3.85144 233.759 4.26411C233.759 4.81434 233.472 5.36457 233.184 5.77724ZM233.184 25.1728H230.161V9.62885H233.184V25.1728Z" fill="#5C6266"/>
<path d="M243.549 25.4482C240.957 25.7233 238.654 23.9351 238.366 21.459C238.366 21.1839 238.366 20.7712 238.366 20.4961V12.2427H235.487V9.6291H238.366V4.95215H241.389V9.6291H245.42V12.2427H241.389V20.221C241.389 21.8717 242.109 22.6971 243.549 22.6971C243.98 22.6971 244.556 22.697 244.988 22.4219L245.996 24.898C245.132 25.3106 244.268 25.4482 243.549 25.4482Z" fill="#5C6266"/>
<path d="M251.034 5.77724C250.17 6.60259 248.875 6.60259 248.011 5.77724C247.147 4.9519 247.147 3.71388 248.011 2.88854C248.875 2.0632 250.17 2.0632 251.034 2.88854C251.466 3.30121 251.61 3.85144 251.61 4.40167C251.61 4.81434 251.466 5.36457 251.034 5.77724ZM251.034 25.1728H248.011V9.62885H251.034V25.1728Z" fill="#5C6266"/>
<path d="M259.671 25.5858C258.087 25.5858 256.504 25.1732 255.352 24.2103C254.201 23.2474 253.625 21.8718 253.625 20.4962C253.625 18.9831 254.345 17.47 255.64 16.5071C257.08 15.5442 258.951 14.9939 260.679 15.1315C262.262 15.1315 263.701 15.4066 265.141 16.0944V15.6817C265.141 14.5813 264.709 13.6184 263.845 12.9306C262.982 12.2428 261.974 11.8301 260.822 11.8301C259.959 11.8301 259.095 11.9677 258.375 12.3803C257.656 12.793 257.224 13.3432 256.936 14.031L254.057 12.793C254.489 11.6926 255.352 10.8672 256.216 10.1794C257.512 9.35408 258.951 8.94141 260.535 8.94141C262.406 8.94141 264.277 9.49164 265.717 10.7297C267.156 11.9677 267.876 13.7559 267.732 15.6817V25.0356H264.853V22.8347H264.997C263.845 24.7605 261.83 25.7234 259.671 25.5858ZM260.247 22.9722C261.542 22.9722 262.694 22.422 263.701 21.5967C264.709 20.7713 265.285 19.6709 265.285 18.4329C264.133 17.7451 262.838 17.3324 261.398 17.47C260.247 17.3324 258.951 17.7451 258.087 18.4329C257.368 18.9831 256.936 19.8084 256.936 20.6338C256.936 21.3216 257.368 22.0093 257.943 22.422C258.519 22.6971 259.383 22.9722 260.247 22.9722Z" fill="#5C6266"/>
<path d="M277.953 25.4482C275.362 25.7233 273.058 23.9351 272.771 21.459C272.771 21.1839 272.771 20.7712 272.771 20.4961V12.2427H269.892V9.6291H272.771V4.95215H275.794V9.6291H279.824V12.2427H275.794V20.221C275.794 21.8717 276.513 22.6971 277.953 22.6971C278.385 22.6971 278.96 22.697 279.392 22.4219L280.4 24.898C279.68 25.3106 278.816 25.4482 277.953 25.4482Z" fill="#5C6266"/>
<path d="M285.438 5.77759C284.574 6.60294 283.278 6.60294 282.415 5.77759C281.983 5.36492 281.839 4.81469 281.839 4.26446C281.839 3.71423 281.983 3.164 282.415 2.75133C283.278 1.92599 284.574 1.92599 285.438 2.75133C285.869 3.164 286.013 3.71423 286.013 4.26446C286.157 4.81469 285.869 5.36492 285.438 5.77759ZM285.438 25.1732H282.415V9.6292H285.438V25.1732Z" fill="#5C6266"/>
<path d="M293.931 25.1729L287.453 9.62891H290.764L295.658 21.5964L300.553 9.62891H303.863L297.242 25.1729H293.931Z" fill="#5C6266"/>
<path d="M312.213 25.586C309.91 25.7236 307.75 24.7607 306.311 23.2476C304.727 21.5969 303.864 19.5335 304.008 17.3326C304.008 15.1317 304.727 13.0683 306.311 11.4176C307.75 9.76694 309.91 8.9416 312.069 8.9416C314.228 8.80404 316.387 9.62938 317.827 11.1425C319.41 12.7932 320.13 14.9941 319.986 17.195V17.8828H307.175C307.175 19.2584 307.75 20.634 308.758 21.5969C309.766 22.4222 310.917 22.9724 312.213 22.9724C314.084 23.11 315.956 22.0095 316.675 20.3589L319.41 21.4593C318.835 22.6973 317.971 23.7978 316.819 24.4856C315.236 25.3109 313.652 25.7236 312.213 25.586ZM316.531 15.5443C316.387 14.5814 315.956 13.7561 315.236 13.0683C314.372 12.243 313.077 11.8303 311.781 11.8303C310.773 11.8303 309.766 12.243 308.902 12.7932C308.038 13.481 307.463 14.4439 307.175 15.5443H316.531Z" fill="#5C6266"/>
<path fill-rule="evenodd" clip-rule="evenodd" d="M13.6032 25.6132C6.21862 25.6132 0 19.8633 0 12.8066C0 5.7499 6.21862 0 13.6032 0C17.6914 0 20.5992 1.52689 22.7872 3.53522L20.2105 5.9975C18.6415 4.59441 16.511 3.49396 13.6032 3.49396C8.20513 3.49396 3.9874 7.64819 3.9874 12.8066C3.9874 17.965 8.20513 22.1192 13.6032 22.1192C17.1012 22.1192 19.0877 20.7712 20.3689 19.5606C21.4197 18.5565 22.0963 17.1259 22.3698 15.1588H13.6032V11.6511H25.9253C26.0549 12.2701 26.1269 13.0267 26.1269 13.8383C26.1269 16.4656 25.3783 19.712 22.96 22.0229C20.5992 24.3614 17.5906 25.6132 13.6032 25.6132Z" fill="#4285F4"/>
<path fill-rule="evenodd" clip-rule="evenodd" d="M41.4572 17.3598C41.4572 14.3886 39.2404 12.3665 36.6781 12.3665C34.1158 12.3665 31.8989 14.4023 31.8989 17.3598C31.8989 20.2898 34.1158 22.3531 36.6781 22.3531C39.2404 22.3669 41.4572 20.3035 41.4572 17.3598ZM45.1711 17.3598C45.1711 22.1055 41.3564 25.5995 36.6637 25.5995C31.9853 25.5995 28.1562 22.1055 28.1562 17.3598C28.1562 12.5866 31.9709 9.12012 36.6637 9.12012C41.3564 9.12012 45.1711 12.5866 45.1711 17.3598Z" fill="#EA4335"/>
<path fill-rule="evenodd" clip-rule="evenodd" d="M60.516 17.3598C60.516 14.3886 58.2992 12.3665 55.7369 12.3665C53.1746 12.3665 50.9578 14.4023 50.9578 17.3598C50.9578 20.2898 53.1746 22.3531 55.7369 22.3531C58.2992 22.3669 60.516 20.3035 60.516 17.3598ZM64.2443 17.3598C64.2443 22.1055 60.4297 25.5995 55.7369 25.5995C51.0442 25.5995 47.2295 22.1055 47.2295 17.3598C47.2295 12.5866 51.0442 9.12012 55.7369 9.12012C60.4297 9.12012 64.2443 12.5866 64.2443 17.3598Z" fill="#FBBC05"/>
<path fill-rule="evenodd" clip-rule="evenodd" d="M79.4892 17.4012C79.4892 14.4987 77.4596 12.3666 74.8829 12.3666C72.263 12.3666 70.0749 14.4987 70.0749 17.4012C70.0749 20.2761 72.263 22.367 74.8829 22.367C77.4739 22.367 79.4892 20.2761 79.4892 17.4012ZM82.8289 9.61541V24.4166C82.8289 30.5104 79.0718 33.0002 74.6237 33.0002C70.4348 33.0002 67.9301 30.3178 66.98 28.1306L70.2765 26.8238C70.8667 28.1719 72.3062 29.7538 74.6237 29.7538C77.4739 29.7538 79.2301 28.0618 79.2301 24.9118V23.7288H79.1006C78.2513 24.733 76.6103 25.5996 74.5518 25.5996C70.2333 25.5996 66.2891 22.0093 66.2891 17.3874C66.2891 12.738 70.2477 9.10645 74.5518 9.10645C76.6103 9.10645 78.2513 9.98681 79.1006 10.9497H79.2301V9.61541H82.8289Z" fill="#4285F4"/>
<path fill-rule="evenodd" clip-rule="evenodd" d="M85.6787 25.1042H89.479V0.880371H85.6787V25.1042Z" fill="#34A853"/>
<path fill-rule="evenodd" clip-rule="evenodd" d="M95.3233 17.1122L103.039 14.0447C102.607 13.013 101.34 12.2977 99.8289 12.2977C97.9144 12.3114 95.2225 13.9346 95.3233 17.1122ZM104.378 20.0834L107.314 21.9542C106.364 23.3023 104.075 25.6132 100.117 25.6132C95.2082 25.6132 91.667 21.9955 91.667 17.3736C91.667 12.4628 95.2369 9.12012 99.685 9.12012C104.162 9.12012 106.35 12.5315 107.07 14.3748L107.458 15.3102L95.9423 19.8633C96.8204 21.514 98.2023 22.3669 100.131 22.3669C102.06 22.3669 103.399 21.459 104.378 20.0834Z" fill="#EA4335"/>
</g>
<defs>
<clipPath id="clip0">
<rect width="320" height="33" fill="white"/>
</clipPath>
</defs>
</svg>
