<svg width="144" height="55" viewBox="0 0 144 55" fill="none" xmlns="http://www.w3.org/2000/svg">
<path d="M143.97 36.0166H0V54.2185H143.97V36.0166Z" fill="#E19B34"/>
<path d="M8.74245 42.2793C8.7994 42.2793 8.84875 42.3021 8.89431 42.3476C8.93986 42.3894 8.95885 42.4387 8.95885 42.5032V42.7954C8.95885 42.8524 8.93986 42.9017 8.89431 42.9473C8.84875 42.9928 8.7994 43.0156 8.74245 43.0156H6.06973V44.8866H8.5754C8.63615 44.8866 8.6855 44.9056 8.73106 44.9511C8.77282 44.9929 8.7918 45.046 8.7918 45.1067V45.399C8.7918 45.4559 8.77282 45.509 8.73106 45.5546C8.6855 45.5963 8.63615 45.6153 8.5754 45.6153H6.06973V47.7406C6.06973 47.7975 6.05075 47.8507 6.00899 47.8962C5.95963 47.938 5.91408 47.9607 5.85333 47.9607H5.52304C5.4623 47.9607 5.41294 47.938 5.36738 47.8962C5.32562 47.8507 5.30664 47.7975 5.30664 47.7406V42.507C5.30664 42.4463 5.32562 42.3932 5.36738 42.3514C5.41294 42.3059 5.4623 42.2831 5.52304 42.2831H8.74245V42.2793Z" fill="white"/>
<path d="M9.91525 44.3968C9.92284 44.0969 9.976 43.8123 10.0747 43.5428C10.1772 43.2772 10.3177 43.0457 10.5113 42.8483C10.7011 42.6472 10.9327 42.4916 11.2098 42.3777C11.4832 42.2601 11.7983 42.2031 12.1552 42.2031C12.5158 42.2031 12.8271 42.2563 13.1043 42.3777C13.3814 42.4916 13.6092 42.6472 13.8028 42.8483C13.9927 43.0457 14.1369 43.2772 14.2356 43.5428C14.3343 43.8123 14.3875 44.1007 14.3951 44.3968C14.4103 44.8826 14.4103 45.3607 14.3951 45.8427C14.3837 46.1426 14.3268 46.4272 14.228 46.6967C14.1293 46.9661 13.9851 47.1976 13.7915 47.395C13.6054 47.5999 13.3738 47.7517 13.1005 47.8656C12.8271 47.9795 12.5158 48.0326 12.1552 48.0326C11.7983 48.0326 11.4832 47.9795 11.2098 47.8656C10.9403 47.7517 10.7049 47.5961 10.5151 47.395C10.3253 47.1976 10.1848 46.9623 10.0861 46.6967C9.98359 46.4272 9.93044 46.1426 9.91905 45.8427C9.90007 45.3607 9.90007 44.8826 9.91525 44.3968ZM13.6206 44.4385C13.6092 44.1842 13.5713 43.9641 13.4953 43.7743C13.4194 43.5846 13.3207 43.429 13.1916 43.3037C13.0625 43.1785 12.9069 43.0874 12.7322 43.0229C12.5576 42.9584 12.364 42.928 12.1514 42.928C11.9426 42.928 11.7489 42.9584 11.5705 43.0229C11.3997 43.0836 11.244 43.1785 11.1111 43.3037C10.9821 43.429 10.8796 43.5808 10.8036 43.7743C10.7239 43.9641 10.6859 44.1842 10.6821 44.4385C10.6745 44.6814 10.667 44.9091 10.667 45.1179C10.667 45.3266 10.6745 45.5581 10.6821 45.801C10.6859 46.0553 10.7277 46.2754 10.8036 46.4652C10.8796 46.6587 10.9783 46.8143 11.1111 46.9396C11.2402 47.061 11.3959 47.1559 11.5705 47.2204C11.7489 47.2773 11.9426 47.3077 12.1514 47.3077C12.364 47.3077 12.5576 47.2773 12.7322 47.2204C12.9069 47.1559 13.0625 47.061 13.1916 46.9396C13.3207 46.8143 13.4194 46.6587 13.4953 46.4652C13.5675 46.2754 13.6092 46.0553 13.6206 45.801C13.632 45.5619 13.6358 45.3304 13.6358 45.1179C13.6358 44.9091 13.632 44.6814 13.6206 44.4385Z" fill="white"/>
<path d="M17.9603 42.2793C18.2261 42.2793 18.4728 42.3135 18.712 42.378C18.9474 42.4425 19.1562 42.5412 19.3346 42.6778C19.5131 42.8144 19.6573 42.9852 19.7599 43.1939C19.8662 43.4027 19.9193 43.6608 19.9193 43.9606C19.9193 44.397 19.8092 44.7462 19.589 45.0081C19.3726 45.2661 19.0917 45.4483 18.75 45.5622L19.9725 47.6913C19.9876 47.7254 19.9952 47.752 19.9952 47.7786C19.9952 47.8279 19.98 47.8697 19.9459 47.9076C19.9041 47.9418 19.87 47.9569 19.8168 47.9569H19.4713C19.3612 47.9569 19.2777 47.9304 19.2245 47.8735C19.1752 47.8203 19.1372 47.7748 19.1182 47.7368L17.9413 45.6722H16.5518V47.7368C16.5518 47.7938 16.529 47.8469 16.4873 47.8924C16.4417 47.9342 16.3924 47.9569 16.3278 47.9569H15.9975C15.9368 47.9569 15.8836 47.9342 15.8419 47.8924C15.7963 47.8469 15.7773 47.7938 15.7773 47.7368V42.5032C15.7773 42.4425 15.8001 42.3894 15.8419 42.3476C15.8836 42.3021 15.9368 42.2793 15.9975 42.2793H17.9603ZM16.5518 44.9435H17.9224C18.3096 44.9435 18.6133 44.8676 18.8259 44.7082C19.0347 44.5564 19.1448 44.3059 19.1448 43.9606C19.1448 43.6152 19.0385 43.3723 18.8259 43.2243C18.6133 43.0839 18.3096 43.0118 17.9224 43.0118H16.5518V44.9435Z" fill="white"/>
<path d="M21.0513 44.3968C21.0551 44.0969 21.1083 43.8123 21.2108 43.5428C21.3095 43.2772 21.4538 43.0457 21.6436 42.8483C21.8334 42.6472 22.065 42.4916 22.3421 42.3777C22.6155 42.2601 22.9306 42.2031 23.2913 42.2031C23.6519 42.2031 23.967 42.2563 24.2404 42.3777C24.5137 42.4916 24.7453 42.6472 24.9351 42.8483C25.125 43.0457 25.2692 43.2772 25.3679 43.5428C25.4704 43.8123 25.5236 44.1007 25.5312 44.3968C25.5464 44.8826 25.5464 45.3607 25.5312 45.8427C25.5198 46.1426 25.4666 46.4272 25.3641 46.6967C25.2654 46.9661 25.1174 47.1976 24.9313 47.395C24.7377 47.5999 24.5099 47.7517 24.2366 47.8656C23.9632 47.9795 23.6481 48.0326 23.2913 48.0326C22.9344 48.0326 22.6193 47.9795 22.3459 47.8656C22.0726 47.7517 21.841 47.5961 21.6512 47.395C21.4652 47.1976 21.3209 46.9623 21.2184 46.6967C21.1197 46.4272 21.0627 46.1426 21.0513 45.8427C21.0324 45.3607 21.0324 44.8826 21.0513 44.3968ZM24.7567 44.4385C24.7453 44.1842 24.7074 43.9641 24.6314 43.7743C24.5593 43.5846 24.4606 43.429 24.3277 43.3037C24.1986 43.1785 24.043 43.0874 23.8683 43.0229C23.6937 42.9584 23.5001 42.928 23.2875 42.928C23.0749 42.928 22.885 42.9584 22.7066 43.0229C22.532 43.0836 22.3763 43.1785 22.2472 43.3037C22.1182 43.429 22.0119 43.5808 21.9359 43.7743C21.86 43.9641 21.8182 44.1842 21.8144 44.4385C21.803 44.6814 21.7993 44.9091 21.7993 45.1179C21.7993 45.3266 21.803 45.5581 21.8144 45.801C21.8182 46.0553 21.86 46.2754 21.9359 46.4652C22.0119 46.6587 22.1182 46.8143 22.2472 46.9396C22.3763 47.061 22.532 47.1559 22.7066 47.2204C22.8812 47.2773 23.0749 47.3077 23.2875 47.3077C23.5001 47.3077 23.6937 47.2773 23.8683 47.2204C24.043 47.1559 24.1948 47.061 24.3277 46.9396C24.4568 46.8143 24.5593 46.6587 24.6314 46.4652C24.7074 46.2754 24.7453 46.0553 24.7567 45.801C24.7681 45.5619 24.7757 45.3304 24.7757 45.1179C24.7757 44.9091 24.7681 44.6814 24.7567 44.4385Z" fill="white"/>
<path d="M33.4986 44.4805C33.5024 44.7234 33.5062 44.9397 33.5062 45.1219C33.5062 45.3079 33.5024 45.5204 33.4986 45.7595C33.4948 46.1011 33.4341 46.4085 33.3202 46.6818C33.2025 46.9588 33.0469 47.1865 32.8456 47.3725C32.6482 47.5622 32.4053 47.7103 32.1319 47.8089C31.8586 47.9076 31.5548 47.9569 31.2208 47.9569H29.3111C29.2504 47.9569 29.201 47.9342 29.1593 47.8924C29.1175 47.8469 29.0947 47.7938 29.0947 47.7368V42.5032C29.0947 42.4425 29.1175 42.3894 29.1593 42.3476C29.201 42.3021 29.2504 42.2793 29.3111 42.2793H31.1676C31.5055 42.2793 31.813 42.3286 32.0977 42.4311C32.3825 42.5336 32.6255 42.674 32.8305 42.8676C33.0355 43.0573 33.1987 43.285 33.3126 43.5583C33.4341 43.8353 33.4948 44.139 33.4986 44.4805ZM32.728 44.5185C32.7204 44.3249 32.6938 44.1352 32.6368 43.953C32.5761 43.7746 32.4888 43.6152 32.3635 43.471C32.2382 43.3306 32.0788 43.2167 31.8813 43.1408C31.6763 43.0573 31.4334 43.0118 31.141 43.0118H29.8654V47.2283H31.179C31.4675 47.2283 31.7143 47.1827 31.9117 47.103C32.1091 47.0157 32.2648 46.9095 32.3863 46.7652C32.504 46.6248 32.5875 46.4616 32.6406 46.2795C32.69 46.1011 32.7166 45.9151 32.7242 45.714C32.7242 45.5963 32.7242 45.4901 32.728 45.399C32.7318 45.3041 32.7318 45.2092 32.7318 45.1219C32.7318 45.0308 32.7318 44.9397 32.728 44.8449C32.728 44.7538 32.728 44.6437 32.728 44.5185Z" fill="white"/>
<path d="M38.3736 47.2283C38.4344 47.2283 38.4875 47.2472 38.5331 47.2928C38.571 47.3345 38.5976 47.3877 38.5976 47.4446V47.7368C38.5976 47.7938 38.5748 47.8469 38.5331 47.8924C38.4875 47.9342 38.4344 47.9569 38.3736 47.9569H35.0973C35.0403 47.9569 34.9872 47.9342 34.9454 47.8924C34.9036 47.8469 34.8809 47.7938 34.8809 47.7368V42.5032C34.8809 42.4425 34.9036 42.3894 34.9454 42.3476C34.991 42.3021 35.0403 42.2793 35.0973 42.2793H38.3091C38.3698 42.2793 38.4192 42.3021 38.4647 42.3476C38.5103 42.3894 38.5331 42.4387 38.5331 42.5032V42.7954C38.5331 42.8524 38.5103 42.9017 38.4647 42.9473C38.4192 42.9928 38.3698 43.0156 38.3091 43.0156H35.6515V44.7234H38.1344C38.1914 44.7234 38.2445 44.7462 38.2863 44.7879C38.3319 44.8335 38.3546 44.8828 38.3546 44.9435V45.232C38.3546 45.2927 38.3319 45.342 38.2863 45.3876C38.2445 45.4331 38.1914 45.4559 38.1344 45.4559H35.6477V47.2283H38.3736Z" fill="white"/>
<path d="M44.3232 42.2793C44.589 42.2793 44.8434 42.3135 45.0749 42.3818C45.3065 42.4501 45.5153 42.5563 45.6938 42.6968C45.8722 42.8372 46.0127 43.0118 46.119 43.2281C46.2215 43.4482 46.2784 43.6987 46.2784 43.9985C46.2784 44.2984 46.2215 44.5526 46.119 44.7728C46.0127 44.9929 45.8684 45.1788 45.6938 45.3193C45.5153 45.4673 45.3065 45.5735 45.0749 45.6457C44.8434 45.714 44.589 45.7519 44.3232 45.7519H42.8312V47.7368C42.8312 47.7938 42.8085 47.8469 42.7667 47.8924C42.7249 47.9342 42.6718 47.9569 42.611 47.9569H42.2769C42.22 47.9569 42.1706 47.9342 42.1251 47.8924C42.0833 47.8469 42.0605 47.7938 42.0605 47.7368V42.5032C42.0605 42.4425 42.0833 42.3894 42.1251 42.3476C42.1706 42.3021 42.22 42.2793 42.2769 42.2793H44.3232ZM42.835 45.0194H44.2853C44.6763 45.0194 44.98 44.936 45.1926 44.769C45.4052 44.6058 45.5115 44.3477 45.5115 43.9985C45.5115 43.6532 45.409 43.4027 45.1926 43.2471C44.98 43.0915 44.6763 43.0118 44.2853 43.0118H42.835V45.0194Z" fill="white"/>
<path d="M50.9516 47.2283C51.0124 47.2283 51.0579 47.2472 51.1073 47.2928C51.149 47.3345 51.1718 47.3877 51.1718 47.4446V47.7368C51.1718 47.7938 51.1528 47.8469 51.1073 47.8924C51.0617 47.9342 51.0124 47.9569 50.9516 47.9569H47.6715C47.6145 47.9569 47.5614 47.9342 47.5196 47.8924C47.4779 47.8469 47.4551 47.7938 47.4551 47.7368V42.5032C47.4551 42.4425 47.4741 42.3894 47.5196 42.3476C47.5652 42.3021 47.6183 42.2793 47.6715 42.2793H50.8871C50.944 42.2793 50.9972 42.3021 51.0389 42.3476C51.0845 42.3894 51.1035 42.4387 51.1035 42.5032V42.7954C51.1035 42.8524 51.0807 42.9017 51.0389 42.9473C50.9972 42.9928 50.944 43.0156 50.8871 43.0156H48.2258V44.7234H50.7048C50.7656 44.7234 50.815 44.7462 50.8567 44.7879C50.9023 44.8335 50.925 44.8828 50.925 44.9435V45.232C50.925 45.2927 50.9061 45.342 50.8567 45.3876C50.815 45.4331 50.7656 45.4559 50.7048 45.4559H48.2258V47.2283H50.9516Z" fill="white"/>
<path d="M54.6422 42.2793C54.9079 42.2793 55.1585 42.3135 55.3939 42.378C55.6293 42.4425 55.8343 42.5412 56.0165 42.6778C56.1949 42.8144 56.3354 42.9852 56.4417 43.1939C56.548 43.4027 56.5974 43.6608 56.5974 43.9606C56.5974 44.397 56.4873 44.7462 56.2671 45.0081C56.0507 45.2661 55.7697 45.4483 55.428 45.5622L56.6505 47.6913C56.6695 47.7254 56.6733 47.752 56.6733 47.7786C56.6733 47.8279 56.6543 47.8697 56.6239 47.9076C56.586 47.9418 56.5442 47.9569 56.4986 47.9569H56.1494C56.0393 47.9569 55.9595 47.9304 55.914 47.8735C55.8608 47.8203 55.8267 47.7748 55.8039 47.7368L54.627 45.6722H53.2337V47.7368C53.2337 47.7938 53.2071 47.8469 53.1691 47.8924C53.1236 47.9342 53.0704 47.9569 53.0173 47.9569H52.6832C52.6225 47.9569 52.5731 47.9342 52.5313 47.8924C52.4858 47.8469 52.4668 47.7938 52.4668 47.7368V42.5032C52.4668 42.4425 52.4896 42.3894 52.5313 42.3476C52.5731 42.3021 52.6263 42.2793 52.6832 42.2793H54.6422ZM53.2337 44.9435H54.6042C54.9914 44.9435 55.2914 44.8676 55.5078 44.7082C55.7204 44.5564 55.8267 44.3059 55.8267 43.9606C55.8267 43.6152 55.7204 43.3723 55.5078 43.2243C55.2914 43.0839 54.9914 43.0118 54.6042 43.0118H53.2337V44.9435Z" fill="white"/>
<path d="M58.1645 47.9569C58.1038 47.9569 58.0506 47.9342 58.0089 47.8924C57.9633 47.8469 57.9443 47.7938 57.9443 47.7368V42.5032C57.9443 42.4425 57.9671 42.3894 58.0089 42.3476C58.0506 42.3021 58.1 42.2793 58.1645 42.2793H58.4948C58.5556 42.2793 58.6087 42.3021 58.6505 42.3476C58.6922 42.3894 58.7112 42.4387 58.7112 42.5032V47.7368C58.7112 47.7938 58.6922 47.8469 58.6505 47.8924C58.6087 47.9342 58.5556 47.9569 58.4948 47.9569H58.1645Z" fill="white"/>
<path d="M60.1013 44.3968C60.1089 44.0969 60.1582 43.8123 60.257 43.5428C60.3595 43.2772 60.5037 43.0457 60.6935 42.8483C60.8834 42.6472 61.115 42.4916 61.3921 42.3777C61.6692 42.2601 61.9844 42.2031 62.3412 42.2031C62.6981 42.2031 63.0132 42.2563 63.2903 42.3777C63.5675 42.4916 63.7991 42.6472 63.9851 42.8483C64.1787 43.0457 64.323 43.2772 64.4217 43.5428C64.5204 43.8123 64.5735 44.1007 64.5811 44.3968C64.5963 44.8826 64.5963 45.3607 64.5811 45.8427C64.5735 46.1426 64.5166 46.4272 64.4141 46.6967C64.3154 46.9661 64.1711 47.1976 63.9813 47.395C63.7915 47.5999 63.5637 47.7517 63.2903 47.8656C63.017 47.9795 62.7019 48.0326 62.345 48.0326C61.9881 48.0326 61.673 47.9795 61.3997 47.8656C61.1263 47.7517 60.8948 47.5961 60.7087 47.395C60.5189 47.1976 60.3708 46.9623 60.2759 46.6967C60.1734 46.4272 60.1203 46.1426 60.1089 45.8427C60.0823 45.3607 60.0823 44.8826 60.1013 44.3968ZM63.8067 44.4385C63.7991 44.1842 63.7535 43.9641 63.6776 43.7743C63.6054 43.5846 63.5067 43.429 63.3777 43.3037C63.2448 43.1785 63.0929 43.0874 62.9183 43.0229C62.7436 42.9584 62.55 42.928 62.3412 42.928C62.1324 42.928 61.935 42.9584 61.7604 43.0229C61.5819 43.0836 61.4301 43.1785 61.301 43.3037C61.1719 43.429 61.0694 43.5808 60.9935 43.7743C60.9137 43.9641 60.8758 44.1842 60.872 44.4385C60.8606 44.6814 60.853 44.9091 60.853 45.1179C60.853 45.3266 60.8568 45.5581 60.872 45.801C60.8758 46.0553 60.9175 46.2754 60.9935 46.4652C61.0694 46.6587 61.1719 46.8143 61.301 46.9396C61.4301 47.061 61.5781 47.1559 61.7604 47.2204C61.935 47.2773 62.1286 47.3077 62.3412 47.3077C62.55 47.3077 62.7436 47.2773 62.9183 47.2204C63.0929 47.1559 63.2486 47.061 63.3777 46.9396C63.5067 46.8143 63.6054 46.6587 63.6776 46.4652C63.7535 46.2754 63.7953 46.0553 63.8067 45.801C63.818 45.5619 63.8256 45.3304 63.8256 45.1179C63.8256 44.9091 63.8142 44.6814 63.8067 44.4385Z" fill="white"/>
<path d="M70.3669 44.4805C70.3745 44.7234 70.3783 44.9397 70.3783 45.1219C70.3783 45.3079 70.3745 45.5204 70.3669 45.7595C70.3631 46.1011 70.3024 46.4085 70.1885 46.6818C70.0784 46.9588 69.9189 47.1865 69.7215 47.3725C69.5165 47.5622 69.2811 47.7103 69.0078 47.8089C68.7306 47.9076 68.4269 47.9569 68.0928 47.9569H66.187C66.13 47.9569 66.0769 47.9342 66.0313 47.8924C65.9896 47.8469 65.9668 47.7938 65.9668 47.7368V42.5032C65.9668 42.4425 65.9896 42.3894 66.0313 42.3476C66.0769 42.3021 66.13 42.2793 66.187 42.2793H68.0435C68.3813 42.2793 68.6927 42.3286 68.9698 42.4311C69.2545 42.5336 69.5013 42.674 69.7063 42.8676C69.9113 43.0573 70.0708 43.285 70.1885 43.5583C70.3024 43.8353 70.3631 44.139 70.3669 44.4805ZM69.5962 44.5185C69.5924 44.3249 69.5583 44.1352 69.5051 43.953C69.4444 43.7746 69.357 43.6152 69.2356 43.471C69.1065 43.3306 68.947 43.2167 68.7458 43.1408C68.5446 43.0573 68.3016 43.0118 68.0055 43.0118H66.7337V47.2283H68.0473C68.3396 47.2283 68.5826 47.1827 68.78 47.103C68.9774 47.0157 69.133 46.9095 69.2583 46.7652C69.376 46.6248 69.4595 46.4616 69.5089 46.2795C69.562 46.1011 69.5924 45.9151 69.5962 45.714C69.5962 45.5963 69.5962 45.4901 69.6 45.399C69.6 45.3041 69.6 45.2092 69.6 45.1219C69.6 45.0308 69.6 44.9397 69.6 44.8449C69.6 44.7538 69.5962 44.6437 69.5962 44.5185Z" fill="white"/>
<path d="M71.9653 47.9569C71.9084 47.9569 71.8552 47.9342 71.8097 47.8924C71.7641 47.8469 71.7451 47.7938 71.7451 47.7368V42.5032C71.7451 42.4425 71.7679 42.3894 71.8097 42.3476C71.8552 42.3021 71.9046 42.2793 71.9653 42.2793H72.2956C72.3526 42.2793 72.4095 42.3021 72.4475 42.3476C72.493 42.3894 72.5158 42.4387 72.5158 42.5032V47.7368C72.5158 47.7938 72.493 47.8469 72.4475 47.8924C72.4057 47.9342 72.3526 47.9569 72.2956 47.9569H71.9653Z" fill="white"/>
<path d="M75.8564 42.2031C76.1867 42.2031 76.4752 42.2525 76.7296 42.3549C76.9802 42.4612 77.1928 42.5826 77.3674 42.7307C77.5458 42.8787 77.6787 43.0381 77.7698 43.2089C77.8609 43.3796 77.9103 43.5277 77.9141 43.6643C77.9217 43.7174 77.9065 43.7592 77.8685 43.7895C77.8306 43.8275 77.7888 43.8427 77.7394 43.8427H77.4092C77.3484 43.8427 77.2991 43.8351 77.2649 43.8123C77.2269 43.7895 77.1928 43.7402 77.1548 43.6643C77.1282 43.6112 77.0865 43.5428 77.0219 43.4593C76.9574 43.3758 76.8738 43.2962 76.7713 43.2165C76.6688 43.1405 76.5398 43.0722 76.3879 43.0153C76.236 42.9584 76.0614 42.9318 75.8602 42.9318C75.7083 42.9318 75.5641 42.947 75.4236 42.9849C75.2869 43.0191 75.1654 43.0722 75.0553 43.1443C74.9452 43.2164 74.8617 43.2999 74.7972 43.4062C74.7326 43.5125 74.6985 43.6339 74.6985 43.7743C74.6985 43.9148 74.7288 44.0324 74.7934 44.1311C74.8541 44.226 74.9566 44.3171 75.0933 44.393C75.23 44.4689 75.4046 44.541 75.6172 44.6055C75.8298 44.67 76.0842 44.7459 76.3879 44.8218C76.6954 44.9053 76.9574 44.9926 77.17 45.0875C77.3826 45.19 77.5534 45.2962 77.6939 45.4177C77.8306 45.5429 77.9255 45.6833 77.99 45.8389C78.0508 45.9983 78.0811 46.1805 78.0811 46.3779C78.0811 46.6246 78.028 46.8447 77.9217 47.0496C77.8154 47.2508 77.6711 47.4291 77.4813 47.5734C77.2915 47.7214 77.0637 47.8314 76.7941 47.9111C76.5284 47.9908 76.2284 48.0326 75.8982 48.0326C75.583 48.0326 75.2945 47.9908 75.0288 47.8998C74.7668 47.8049 74.539 47.6872 74.3492 47.543C74.1594 47.395 74.0113 47.2318 73.9012 47.0534C73.7911 46.8788 73.7342 46.7043 73.7266 46.5297C73.7266 46.4803 73.7455 46.4386 73.7797 46.4006C73.8177 46.3665 73.8556 46.3513 73.905 46.3513H74.2429C74.296 46.3513 74.3416 46.3627 74.3796 46.3817C74.4213 46.4044 74.4593 46.4538 74.4897 46.5297C74.5238 46.6056 74.5732 46.6853 74.6415 46.7764C74.7099 46.8675 74.801 46.9509 74.9149 47.0269C75.0288 47.1066 75.1692 47.1711 75.3287 47.228C75.4881 47.2811 75.6856 47.3077 75.9057 47.3077C76.0956 47.3077 76.2778 47.2887 76.4448 47.2432C76.6157 47.1976 76.7675 47.1369 76.8966 47.0572C77.0257 46.9737 77.132 46.8826 77.2041 46.7688C77.2763 46.6549 77.3142 46.5259 77.3142 46.3855C77.3142 46.2488 77.2725 46.1236 77.1852 46.0249C77.1016 45.9262 76.9764 45.8389 76.8131 45.7555C76.6499 45.6758 76.4524 45.6036 76.2171 45.5315C75.9817 45.4632 75.7121 45.3911 75.416 45.3152C75.1464 45.2431 74.9149 45.1634 74.725 45.0571C74.5352 44.9585 74.3796 44.8446 74.2657 44.7118C74.148 44.5827 74.0607 44.4423 74.0075 44.2829C73.9582 44.1273 73.9316 43.9565 73.9316 43.7706C73.9316 43.5694 73.9695 43.3758 74.0531 43.1861C74.1366 42.9963 74.2543 42.8293 74.4137 42.6851C74.5732 42.5409 74.7744 42.4232 75.0136 42.3322C75.249 42.2449 75.5299 42.2031 75.8564 42.2031Z" fill="white"/>
<path d="M81.8512 45.7102L83.4912 42.5412C83.5216 42.4766 83.571 42.4197 83.6241 42.3628C83.6811 42.3097 83.757 42.2793 83.8481 42.2793H84.1556C84.2164 42.2793 84.2695 42.3021 84.3113 42.3476C84.3568 42.3894 84.3758 42.4387 84.3758 42.5032V47.7368C84.3758 47.7938 84.3568 47.8469 84.3113 47.8924C84.2695 47.9342 84.2202 47.9569 84.1556 47.9569H83.8215C83.7608 47.9569 83.7152 47.9342 83.6697 47.8924C83.6279 47.8469 83.6051 47.7938 83.6051 47.7368V43.8961L82.3409 46.3364C82.2991 46.4161 82.2498 46.4806 82.2042 46.5224C82.1549 46.5679 82.0903 46.5945 82.0106 46.5945H81.7031C81.6196 46.5945 81.555 46.5679 81.5057 46.5224C81.4563 46.4806 81.4146 46.4161 81.369 46.3364L80.1048 43.8961V47.7368C80.1048 47.7938 80.082 47.8469 80.0402 47.8924C79.9947 47.9342 79.9491 47.9569 79.8884 47.9569H79.5543C79.4935 47.9569 79.4442 47.9342 79.3986 47.8924C79.3569 47.8469 79.3379 47.7938 79.3379 47.7368V42.5032C79.3379 42.4425 79.3607 42.3894 79.3986 42.3476C79.4442 42.3021 79.4935 42.2793 79.5543 42.2793H79.8618C79.9529 42.2793 80.0251 42.3059 80.082 42.3628C80.1427 42.4159 80.1845 42.4766 80.2149 42.5412L81.8512 45.7102Z" fill="white"/>
<path d="M85.7615 44.3968C85.7652 44.0969 85.8184 43.8123 85.9209 43.5428C86.0196 43.2772 86.1639 43.0457 86.3537 42.8483C86.5435 42.6472 86.7713 42.4916 87.0485 42.3777C87.3256 42.2601 87.6369 42.2031 87.9976 42.2031C88.3545 42.2031 88.6696 42.2563 88.9467 42.3777C89.2238 42.4916 89.4554 42.6472 89.6453 42.8483C89.8351 43.0457 89.9793 43.2772 90.0819 43.5428C90.1806 43.8123 90.2337 44.1007 90.2413 44.3968C90.2565 44.8826 90.2565 45.3607 90.2413 45.8427C90.2337 46.1426 90.1768 46.4272 90.0743 46.6967C89.9718 46.9661 89.8275 47.1976 89.6415 47.395C89.4516 47.5999 89.22 47.7517 88.9467 47.8656C88.6734 47.9795 88.3582 48.0326 88.0052 48.0326C87.6445 48.0326 87.3332 47.9795 87.0599 47.8656C86.7865 47.7517 86.5587 47.5961 86.3651 47.395C86.1753 47.1976 86.031 46.9623 85.9323 46.6967C85.8298 46.4272 85.7766 46.1426 85.769 45.8427C85.7425 45.3607 85.7425 44.8826 85.7615 44.3968ZM89.4668 44.4385C89.4554 44.1842 89.4099 43.9641 89.3415 43.7743C89.2656 43.5846 89.1669 43.429 89.034 43.3037C88.9049 43.1785 88.7531 43.0874 88.5746 43.0229C88.4038 42.9584 88.2064 42.928 87.9976 42.928C87.785 42.928 87.5952 42.9584 87.4167 43.0229C87.2421 43.0836 87.0902 43.1785 86.9611 43.3037C86.8321 43.429 86.7296 43.5808 86.6498 43.7743C86.5739 43.9641 86.5359 44.1842 86.5283 44.4385C86.517 44.6814 86.5132 44.9091 86.5132 45.1179C86.5132 45.3266 86.517 45.5581 86.5283 45.801C86.5359 46.0553 86.5739 46.2754 86.6498 46.4652C86.7258 46.6587 86.8283 46.8143 86.9611 46.9396C87.0902 47.061 87.2421 47.1559 87.4167 47.2204C87.5952 47.2773 87.785 47.3077 87.9976 47.3077C88.2064 47.3077 88.4038 47.2773 88.5746 47.2204C88.7531 47.1559 88.9011 47.061 89.034 46.9396C89.1631 46.8143 89.2656 46.6587 89.3415 46.4652C89.4099 46.2754 89.4554 46.0553 89.4668 45.801C89.4744 45.5619 89.482 45.3304 89.482 45.1179C89.482 44.9091 89.4782 44.6814 89.4668 44.4385Z" fill="white"/>
<path d="M97.0525 46.6778H94.2393L93.8179 47.7556C93.8027 47.7974 93.7723 47.8429 93.7268 47.8923C93.685 47.9378 93.6091 47.9606 93.5028 47.9606H93.1991C93.1535 47.9606 93.1117 47.9416 93.0776 47.9112C93.0434 47.8733 93.0244 47.8315 93.0244 47.7822C93.0244 47.7556 93.0358 47.7177 93.0586 47.6721L95.0441 42.56C95.0745 42.4993 95.1125 42.4423 95.1656 42.3816C95.2188 42.3209 95.2947 42.2905 95.4086 42.2905H95.8945C96.0008 42.2905 96.0806 42.3209 96.1375 42.3816C96.1907 42.4423 96.2324 42.4955 96.259 42.56L98.237 47.6721C98.2597 47.7177 98.2711 47.7594 98.2711 47.7822C98.2711 47.8315 98.2521 47.8733 98.218 47.9112C98.1838 47.9454 98.1421 47.9606 98.0965 47.9606H97.7966C97.6903 47.9606 97.6105 47.9378 97.5688 47.8923C97.5232 47.8429 97.4967 47.7974 97.4777 47.7556L97.0525 46.6778ZM94.5202 45.9453H96.7677L95.6478 43.0534L94.5202 45.9453Z" fill="white"/>
<path d="M101.487 42.2793C101.752 42.2793 102.003 42.3135 102.238 42.378C102.474 42.4425 102.679 42.5412 102.857 42.6778C103.036 42.8144 103.176 42.9852 103.282 43.1939C103.389 43.4027 103.442 43.6608 103.442 43.9606C103.442 44.397 103.332 44.7462 103.111 45.0081C102.895 45.2661 102.614 45.4483 102.272 45.5622L103.495 47.6913C103.514 47.7254 103.521 47.752 103.521 47.7786C103.521 47.8279 103.503 47.8697 103.468 47.9076C103.434 47.9418 103.392 47.9569 103.339 47.9569H102.994C102.884 47.9569 102.804 47.9304 102.755 47.8735C102.701 47.8203 102.667 47.7748 102.641 47.7368L101.468 45.6722H100.074V47.7368C100.074 47.7938 100.052 47.8469 100.006 47.8924C99.9642 47.9342 99.9148 47.9569 99.8503 47.9569H99.5162C99.4593 47.9569 99.4099 47.9342 99.3643 47.8924C99.3226 47.8469 99.2998 47.7938 99.2998 47.7368V42.5032C99.2998 42.4425 99.3226 42.3894 99.3643 42.3476C99.4061 42.3021 99.4555 42.2793 99.5162 42.2793H101.487ZM100.074 44.9435H101.445C101.832 44.9435 102.132 44.8676 102.352 44.7082C102.561 44.5564 102.667 44.3059 102.667 43.9606C102.667 43.6152 102.561 43.3723 102.352 43.2243C102.132 43.0839 101.832 43.0118 101.445 43.0118H100.074V44.9435Z" fill="white"/>
<path d="M104.577 44.3815C104.589 44.0854 104.638 43.8008 104.737 43.5389C104.832 43.2695 104.972 43.038 105.166 42.8406C105.359 42.6395 105.595 42.4839 105.883 42.37C106.168 42.2524 106.51 42.1992 106.897 42.1992C107.265 42.1992 107.588 42.2524 107.865 42.3624C108.146 42.4687 108.374 42.6015 108.56 42.7609C108.746 42.9203 108.886 43.0911 108.981 43.2733C109.076 43.4554 109.126 43.6186 109.133 43.7628C109.137 43.8122 109.122 43.8577 109.084 43.8881C109.05 43.9222 109 43.9412 108.955 43.9412H108.621C108.491 43.9412 108.412 43.9071 108.385 43.8501C108.324 43.7173 108.245 43.5997 108.161 43.4858C108.078 43.3719 107.979 43.2733 107.865 43.1898C107.751 43.1101 107.615 43.0456 107.459 43C107.299 42.9507 107.11 42.9241 106.893 42.9241C106.673 42.9241 106.468 42.9545 106.282 43.019C106.096 43.0797 105.933 43.1746 105.8 43.2998C105.659 43.4251 105.557 43.5769 105.473 43.7666C105.39 43.9526 105.348 44.1689 105.344 44.4194C105.333 44.6623 105.325 44.8862 105.325 45.0912C105.325 45.2999 105.333 45.5238 105.344 45.7667C105.348 46.0248 105.39 46.2563 105.473 46.4461C105.553 46.6434 105.659 46.8028 105.8 46.9319C105.933 47.0609 106.096 47.152 106.282 47.2165C106.468 47.2734 106.673 47.3038 106.893 47.3038C107.11 47.3038 107.311 47.281 107.501 47.2241C107.69 47.1709 107.857 47.0799 107.998 46.9622C108.135 46.8408 108.245 46.6852 108.324 46.484C108.404 46.2943 108.442 46.0552 108.442 45.7705V45.5466H107.273C107.212 45.5466 107.167 45.5238 107.121 45.4783C107.075 45.4327 107.056 45.3834 107.056 45.3227V45.0342C107.056 44.9735 107.079 44.9242 107.121 44.8786C107.167 44.8331 107.212 44.8141 107.273 44.8141H108.996C109.053 44.8141 109.11 44.8331 109.148 44.8786C109.194 44.9204 109.217 44.9735 109.217 45.0342V45.8047C109.217 46.1273 109.163 46.4271 109.057 46.7003C108.958 46.9736 108.803 47.2089 108.609 47.4063C108.412 47.6036 108.165 47.7554 107.88 47.8655C107.588 47.9755 107.261 48.0287 106.893 48.0287C106.506 48.0287 106.164 47.9755 105.88 47.8579C105.591 47.7402 105.356 47.5884 105.166 47.3835C104.976 47.1823 104.836 46.9508 104.737 46.6776C104.638 46.4043 104.585 46.1121 104.574 45.8009C104.562 45.3341 104.562 44.8559 104.577 44.3815Z" fill="white"/>
<path d="M114.035 47.2283C114.095 47.2283 114.145 47.2472 114.19 47.2928C114.232 47.3345 114.255 47.3877 114.255 47.4446V47.7368C114.255 47.7938 114.232 47.8469 114.19 47.8924C114.149 47.9342 114.099 47.9569 114.035 47.9569H110.758C110.701 47.9569 110.644 47.9342 110.603 47.8924C110.561 47.8469 110.538 47.7938 110.538 47.7368V42.5032C110.538 42.4425 110.561 42.3894 110.603 42.3476C110.644 42.3021 110.698 42.2793 110.758 42.2793H113.97C114.027 42.2793 114.084 42.3021 114.126 42.3476C114.171 42.3894 114.19 42.4387 114.19 42.5032V42.7954C114.19 42.8524 114.168 42.9017 114.126 42.9473C114.084 42.9928 114.031 43.0156 113.97 43.0156H111.309V44.7234H113.792C113.849 44.7234 113.902 44.7462 113.947 44.7879C113.993 44.8335 114.016 44.8828 114.016 44.9435V45.232C114.016 45.2927 113.993 45.342 113.947 45.3876C113.906 45.4331 113.852 45.4559 113.792 45.4559H111.309V47.2283H114.035Z" fill="white"/>
<path d="M119.274 47.9567C119.194 47.9567 119.137 47.934 119.08 47.8808C119.031 47.8277 118.985 47.7746 118.947 47.71L116.313 43.744V47.7328C116.313 47.7897 116.29 47.8429 116.248 47.8884C116.202 47.9302 116.153 47.9529 116.092 47.9529H115.758C115.701 47.9529 115.644 47.9302 115.603 47.8884C115.561 47.8429 115.538 47.7897 115.538 47.7328V42.4992C115.538 42.4385 115.557 42.3853 115.603 42.3436C115.644 42.2981 115.701 42.2753 115.758 42.2753H116.039C116.115 42.2753 116.18 42.3018 116.233 42.355C116.282 42.4043 116.328 42.4612 116.362 42.5182L119 46.4804V42.4954C119 42.4347 119.023 42.3815 119.065 42.3398C119.111 42.2943 119.156 42.2715 119.221 42.2715H119.551C119.616 42.2715 119.665 42.2943 119.707 42.3398C119.752 42.3815 119.775 42.4309 119.775 42.4954V47.729C119.775 47.7859 119.752 47.8391 119.707 47.8846C119.665 47.9264 119.616 47.9491 119.551 47.9491H119.274V47.9567Z" fill="white"/>
<path d="M124.884 42.2793C124.944 42.2793 124.994 42.3021 125.035 42.3476C125.081 42.3894 125.1 42.4387 125.1 42.5032V42.7954C125.1 42.8524 125.081 42.9017 125.035 42.9473C124.994 42.9928 124.941 43.0156 124.884 43.0156H123.369V47.7406C123.369 47.7975 123.342 47.8507 123.304 47.8962C123.259 47.938 123.209 47.9607 123.149 47.9607H122.815C122.758 47.9607 122.708 47.938 122.659 47.8962C122.617 47.8507 122.594 47.7975 122.594 47.7406V43.0156H121.076C121.015 43.0156 120.966 42.9928 120.924 42.9473C120.878 42.9017 120.859 42.8524 120.859 42.7954V42.5032C120.859 42.4425 120.878 42.3894 120.924 42.3476C120.962 42.3021 121.015 42.2793 121.076 42.2793H124.884Z" fill="white"/>
<path d="M126.407 47.9569C126.346 47.9569 126.297 47.9342 126.255 47.8924C126.213 47.8469 126.187 47.7938 126.187 47.7368V42.5032C126.187 42.4425 126.209 42.3894 126.255 42.3476C126.3 42.3021 126.35 42.2793 126.407 42.2793H126.741C126.798 42.2793 126.851 42.3021 126.893 42.3476C126.938 42.3894 126.957 42.4387 126.957 42.5032V47.7368C126.957 47.7938 126.938 47.8469 126.893 47.8924C126.851 47.9342 126.798 47.9569 126.741 47.9569H126.407Z" fill="white"/>
<path d="M132.287 47.9567C132.211 47.9567 132.146 47.934 132.097 47.8808C132.047 47.8277 132.002 47.7746 131.964 47.71L129.325 43.744V47.7328C129.325 47.7897 129.303 47.8429 129.261 47.8884C129.219 47.9302 129.166 47.9529 129.109 47.9529H128.775C128.718 47.9529 128.665 47.9302 128.619 47.8884C128.577 47.8429 128.555 47.7897 128.555 47.7328V42.4992C128.555 42.4385 128.577 42.3853 128.619 42.3436C128.665 42.2981 128.718 42.2753 128.775 42.2753H129.06C129.136 42.2753 129.2 42.3018 129.253 42.355C129.303 42.4043 129.348 42.4612 129.382 42.5182L132.021 46.4804V42.4954C132.021 42.4347 132.04 42.3815 132.085 42.3398C132.131 42.2943 132.18 42.2715 132.241 42.2715H132.575C132.636 42.2715 132.685 42.2943 132.727 42.3398C132.773 42.3815 132.792 42.4309 132.792 42.4954V47.729C132.792 47.7859 132.773 47.8391 132.727 47.8846C132.685 47.9264 132.636 47.9491 132.575 47.9491H132.287V47.9567Z" fill="white"/>
<path d="M134.174 44.3968C134.177 44.0969 134.234 43.8123 134.333 43.5428C134.432 43.2772 134.58 43.0457 134.766 42.8483C134.956 42.6472 135.187 42.4916 135.464 42.3777C135.742 42.2601 136.057 42.2031 136.414 42.2031C136.77 42.2031 137.089 42.2563 137.359 42.3777C137.632 42.4916 137.868 42.6472 138.057 42.8483C138.247 43.0457 138.391 43.2772 138.49 43.5428C138.593 43.8123 138.646 44.1007 138.65 44.3968C138.661 44.8826 138.661 45.3607 138.65 45.8427C138.638 46.1426 138.581 46.4272 138.483 46.6967C138.384 46.9661 138.236 47.1976 138.05 47.395C137.86 47.5999 137.628 47.7517 137.355 47.8656C137.085 47.9795 136.767 48.0326 136.414 48.0326C136.057 48.0326 135.742 47.9795 135.468 47.8656C135.195 47.7517 134.967 47.5961 134.773 47.395C134.584 47.1976 134.439 46.9623 134.341 46.6967C134.242 46.4272 134.185 46.1426 134.174 45.8427C134.162 45.3607 134.162 44.8826 134.174 44.3968ZM137.887 44.4385C137.875 44.1842 137.83 43.9641 137.757 43.7743C137.689 43.5846 137.587 43.429 137.454 43.3037C137.325 43.1785 137.169 43.0874 137.002 43.0229C136.824 42.9584 136.63 42.928 136.421 42.928C136.205 42.928 136.011 42.9584 135.84 43.0229C135.666 43.0836 135.51 43.1785 135.385 43.3037C135.252 43.429 135.149 43.5808 135.073 43.7743C135.001 43.9641 134.959 44.1842 134.952 44.4385C134.94 44.6814 134.937 44.9091 134.937 45.1179C134.937 45.3266 134.94 45.5581 134.952 45.801C134.959 46.0553 135.001 46.2754 135.073 46.4652C135.145 46.6587 135.248 46.8143 135.385 46.9396C135.51 47.061 135.666 47.1559 135.84 47.2204C136.015 47.2773 136.208 47.3077 136.421 47.3077C136.63 47.3077 136.824 47.2773 137.002 47.2204C137.173 47.1559 137.328 47.061 137.454 46.9396C137.587 46.8143 137.689 46.6587 137.757 46.4652C137.833 46.2754 137.875 46.0553 137.887 45.801C137.894 45.5619 137.898 45.3304 137.898 45.1179C137.898 44.9091 137.894 44.6814 137.887 44.4385Z" fill="white"/>
<path d="M26.4976 0H0.0361328V33.9976H26.4976V0Z" fill="#00709E"/>
<path d="M54.9918 0H28.5342V33.9976H54.9918V0Z" fill="#00709E"/>
<path d="M83.4889 0H57.0312V33.9976H83.4889V0Z" fill="#00709E"/>
<path d="M111.993 0H85.5352V33.9976H111.993V0Z" fill="#00709E"/>
<path d="M144 0H114.03V33.9976H144V0Z" fill="#00709E"/>
<path d="M33.1848 14.403C33.2455 13.3176 33.4505 12.2891 33.815 11.3289C34.1718 10.3649 34.7034 9.52994 35.4019 8.82023C36.1043 8.11053 36.9812 7.54504 38.0291 7.12757C39.0769 6.71009 40.3221 6.49756 41.7648 6.49756C43.1847 6.49756 44.4185 6.7025 45.4701 7.11238C46.518 7.51847 47.395 8.08396 48.0973 8.80126C48.7959 9.52235 49.3312 10.3611 49.6994 11.3137C50.0677 12.2663 50.2841 13.2948 50.341 14.403C50.36 14.7749 50.3752 15.181 50.3866 15.6289C50.398 16.0767 50.4018 16.5397 50.4018 17.0141C50.4018 17.4885 50.398 17.9515 50.3866 18.3994C50.3752 18.8472 50.36 19.2571 50.341 19.6252C50.2841 20.7145 50.0753 21.7392 49.7146 22.7031C49.3539 23.6671 48.8224 24.5021 48.1239 25.2118C47.4253 25.9215 46.5446 26.4794 45.4815 26.8893C44.4223 27.2954 43.1809 27.5003 41.7648 27.5003C40.3221 27.5003 39.0769 27.2954 38.0291 26.8893C36.9774 26.4794 36.1043 25.9215 35.4019 25.2118C34.7034 24.5021 34.1718 23.6671 33.815 22.7031C33.4543 21.7392 33.2455 20.7145 33.1848 19.6252C33.1658 19.2571 33.1506 18.8472 33.1392 18.3994C33.1278 17.9515 33.124 17.4885 33.124 17.0141C33.124 16.5397 33.1278 16.0767 33.1392 15.6289C33.1506 15.181 33.1658 14.7711 33.1848 14.403ZM46.4003 14.5472C46.3244 13.1506 45.8688 12.0614 45.0449 11.2947C44.2173 10.5319 43.1239 10.141 41.7648 10.141C40.4019 10.141 39.3085 10.5281 38.4808 11.2947C37.6532 12.0651 37.2014 13.1506 37.1217 14.5472C37.0837 15.2873 37.0648 16.1071 37.0648 17.0141C37.0648 17.9174 37.0837 18.7409 37.1217 19.4772C37.2014 20.8776 37.6532 21.9555 38.4808 22.7183C39.3085 23.4736 40.4019 23.8569 41.7648 23.8569C43.1239 23.8569 44.2173 23.4774 45.0449 22.7183C45.8726 21.9593 46.3244 20.8776 46.4003 19.4772C46.4383 18.7409 46.4572 17.9174 46.4572 17.0141C46.461 16.1071 46.4383 15.2873 46.4003 14.5472Z" fill="white"/>
<path d="M76.5028 8.2092C75.1626 7.07064 73.2833 6.49756 70.865 6.49756H62.471C62.2166 6.49756 62.0078 6.7025 62.0078 6.95678V27.0411C62.0078 27.2954 62.2128 27.5003 62.471 27.5003H65.5955C65.8498 27.5003 66.0549 27.2954 66.0549 27.0411L66.0587 19.9972H70.8612C73.2833 19.9972 75.1626 19.4165 76.499 18.2589C77.8391 17.0976 78.5073 15.4163 78.5073 13.2227C78.5149 11.0177 77.8429 9.34777 76.5028 8.2092ZM73.4428 15.5719C72.7632 16.0236 71.8521 16.2437 70.7131 16.2437H66.0624V10.2472H70.7131C71.8521 10.2472 72.7632 10.4636 73.4428 10.8924C74.1224 11.3213 74.464 12.0955 74.464 13.2189C74.464 14.3385 74.1262 15.1203 73.4428 15.5719Z" fill="white"/>
<path d="M139.373 27.0412L131.81 7.51858C131.693 7.18081 131.552 6.92653 131.393 6.75574C131.233 6.58496 130.994 6.50146 130.675 6.50146H127.376C127.053 6.50146 126.814 6.58496 126.655 6.75574C126.495 6.92653 126.355 7.18081 126.237 7.51858L118.663 27.0412C118.561 27.2955 118.69 27.5004 118.94 27.5004H122.228C122.483 27.5004 122.771 27.2955 122.87 27.0412L124.286 23.4206H133.766L135.174 27.0412C135.273 27.2955 135.558 27.5004 135.816 27.5004H139.1C139.35 27.5004 139.472 27.2955 139.373 27.0412ZM125.721 19.6671L129.024 11.1165L132.319 19.6671H125.721Z" fill="white"/>
<path d="M20.0188 6.49756H6.50332C6.24895 6.49756 6.04395 6.7025 6.04395 6.95678V27.0411C6.04395 27.2954 6.25275 27.5003 6.50332 27.5003H9.6392C9.89357 27.5003 10.1024 27.2954 10.1024 27.0411L10.0986 19.8074H19.4151C19.6695 19.8074 19.8745 19.5987 19.8745 19.3482V16.5169C19.8745 16.2627 19.6657 16.0577 19.4151 16.0577H10.0948V10.2472H20.0188C20.2731 10.2472 20.4781 10.0423 20.4781 9.78802V6.95678C20.4819 6.7025 20.2731 6.49756 20.0188 6.49756Z" fill="white"/>
<path d="M105.698 6.49756H105.109H104.118H93.4048H92.1748H91.8217C91.5673 6.49756 91.3623 6.7025 91.3623 6.95678V7.30974V8.53939V25.4623V26.6881V27.0411C91.3623 27.2954 91.5711 27.5003 91.8217 27.5003H92.1748H93.4048H104.118H105.349H105.698C105.952 27.5003 106.157 27.2954 106.157 27.0411V26.6881V25.7887V25.4585V24.5552V24.2099C106.157 23.9556 105.952 23.7506 105.698 23.7506H105.364C105.36 23.7506 105.352 23.7468 105.349 23.7468H95.4169V18.7713H105.698C105.952 18.7713 106.157 18.5664 106.157 18.3121V15.4808C106.157 15.2266 105.952 15.0216 105.698 15.0216H95.4169V10.2472H104.118H105.109H105.698C105.952 10.2472 106.157 10.0385 106.157 9.78802V8.53559V8.20161V6.95298C106.157 6.7025 105.952 6.49756 105.698 6.49756Z" fill="white"/>
</svg>
