<svg width="33" height="33" viewBox="0 0 33 33" fill="none" xmlns="http://www.w3.org/2000/svg">
<path class="svg-arrow" d="M16.6873 10.6464C16.492 10.4512 16.1754 10.4512 15.9802 10.6464L12.7982 13.8284C12.6029 14.0237 12.6029 14.3403 12.7982 14.5355C12.9935 14.7308 13.3101 14.7308 13.5053 14.5355L16.3337 11.7071L19.1622 14.5355C19.3574 14.7308 19.674 14.7308 19.8693 14.5355C20.0645 14.3403 20.0645 14.0237 19.8693 13.8284L16.6873 10.6464ZM16.8337 19.1431L16.8337 11L15.8337 11L15.8337 19.1431L16.8337 19.1431Z" fill="#212121"/>
<path d="M22.667 15.8858L22.667 22.9431C22.667 22.9431 14.9468 22.9431 9.99998 22.9431L9.99998 15.8858" stroke="#212121" stroke-linecap="round" stroke-linejoin="round"/>
</svg>
