<svg width="22" height="18" viewBox="0 0 22 18" fill="none" xmlns="http://www.w3.org/2000/svg">
<path d="M19.5043 4.37899C19.5175 4.56982 19.5175 4.76066 19.5175 4.95326C19.5175 10.8218 15.0332 17.59 6.83335 17.59V17.5865C4.41109 17.59 2.03915 16.8988 0 15.5954C0.352216 15.6376 0.706198 15.6587 1.06106 15.6596C3.06843 15.6614 5.01842 14.9904 6.59765 13.7547C4.69004 13.7187 3.01723 12.4795 2.43285 10.6705C3.10109 10.7989 3.78963 10.7725 4.44552 10.594C2.36576 10.1754 0.869506 8.35495 0.869506 6.24077C0.869506 6.22142 0.869506 6.20295 0.869506 6.18448C1.48919 6.52835 2.18303 6.71919 2.89276 6.74029C0.933947 5.43608 0.330147 2.83996 1.51303 0.810199C3.77639 3.58485 7.11583 5.27162 10.7007 5.45015C10.3414 3.9076 10.8322 2.29118 11.9904 1.20683C13.7859 -0.474669 16.6098 -0.388484 18.2976 1.39943C19.296 1.20331 20.2529 0.838341 21.1286 0.321228C20.7958 1.3493 20.0993 2.22259 19.1689 2.77752C20.0525 2.67374 20.9158 2.43805 21.7288 2.07836C21.1303 2.97187 20.3765 3.75018 19.5043 4.37899Z" fill="#212121"/>
</svg>
